<svg width="11" height="12" viewBox="0 0 11 12" fill="none" xmlns="http://www.w3.org/2000/svg">
<path d="M10.2857 5.71429C10.2857 5.25893 9.98438 4.85714 9.50223 4.85714H4.78795L6.75 2.89509C6.91071 2.73438 7.00446 2.51339 7.00446 2.28571C7.00446 2.05804 6.91071 1.83705 6.75 1.67634L6.24777 1.1808C6.08705 1.02009 5.87277 0.926339 5.64509 0.926339C5.41741 0.926339 5.19643 1.02009 5.03571 1.1808L0.676339 5.53348C0.522321 5.6942 0.428571 5.91518 0.428571 6.14286C0.428571 6.37054 0.522321 6.59152 0.676339 6.74554L5.03571 11.1116C5.19643 11.2656 5.41741 11.3594 5.64509 11.3594C5.87277 11.3594 6.09375 11.2656 6.24777 11.1116L6.75 10.6027C6.91071 10.4487 7.00446 10.2277 7.00446 10C7.00446 9.77232 6.91071 9.55134 6.75 9.39732L4.78795 7.42857H9.50223C9.98438 7.42857 10.2857 7.02679 10.2857 6.57143V5.71429Z" fill="white"/>
</svg>
