<svg width="11" height="9" viewBox="0 0 11 9" fill="none" xmlns="http://www.w3.org/2000/svg">
<path d="M9.42857 5.35714C9.42857 5.34375 9.42857 5.33036 9.42188 5.31696L5.57143 2.14286L1.72098 5.31696C1.72098 5.33036 1.71429 5.34375 1.71429 5.35714V8.57143C1.71429 8.8058 1.90848 9 2.14286 9H4.71429V6.42857H6.42857V9H9C9.23438 9 9.42857 8.8058 9.42857 8.57143V5.35714ZM10.9219 4.89509C10.9955 4.80804 10.9821 4.66741 10.8951 4.59375L9.42857 3.375V0.642857C9.42857 0.522321 9.33482 0.428571 9.21429 0.428571H7.92857C7.80804 0.428571 7.71429 0.522321 7.71429 0.642857V1.94866L6.08036 0.582589C5.79911 0.348214 5.34375 0.348214 5.0625 0.582589L0.247768 4.59375C0.160714 4.66741 0.147321 4.80804 0.220982 4.89509L0.636161 5.39062C0.669643 5.4308 0.723214 5.45759 0.776786 5.46429C0.837054 5.47098 0.890625 5.45089 0.9375 5.41741L5.57143 1.55357L10.2054 5.41741C10.2455 5.45089 10.2924 5.46429 10.346 5.46429C10.3527 5.46429 10.3594 5.46429 10.3661 5.46429C10.4196 5.45759 10.4732 5.4308 10.5067 5.39062L10.9219 4.89509Z" fill="white"/>
</svg>
